<svg width="21" height="21" viewBox="0 0 21 21" fill="none" xmlns="http://www.w3.org/2000/svg">
<path d="M6.09375 11.4629L3 13.9629V3.96289C3 3.79713 3.06585 3.63816 3.18306 3.52095C3.30027 3.40374 3.45924 3.33789 3.625 3.33789H13.625C13.7908 3.33789 13.9497 3.40374 14.0669 3.52095C14.1842 3.63816 14.25 3.79713 14.25 3.96289V10.8379C14.25 11.0037 14.1842 11.1626 14.0669 11.2798C13.9497 11.397 13.7908 11.4629 13.625 11.4629H6.09375Z" stroke="#7F39B1" stroke-width="1.5" stroke-linecap="round" stroke-linejoin="round"/>
<path d="M6.75 11.4629V14.5879C6.75 14.7537 6.81585 14.9126 6.93306 15.0298C7.05027 15.147 7.20924 15.2129 7.375 15.2129H14.9062L18 17.7129V7.71289C18 7.54713 17.9342 7.38816 17.8169 7.27095C17.6997 7.15374 17.5408 7.08789 17.375 7.08789H14.25" stroke="#7F39B1" stroke-width="1.5" stroke-linecap="round" stroke-linejoin="round"/>
</svg>
