<svg width="15" height="14" viewBox="0 0 15 14" fill="none" xmlns="http://www.w3.org/2000/svg">
<path d="M7.4665 3.51121C5.55544 3.51121 4.01397 5.05268 4.01397 6.96374C4.01397 8.87479 5.55544 10.4163 7.4665 10.4163C9.37755 10.4163 10.919 8.87479 10.919 6.96374C10.919 5.05268 9.37755 3.51121 7.4665 3.51121ZM7.4665 9.20833C6.23152 9.20833 5.2219 8.20172 5.2219 6.96374C5.2219 5.72575 6.22852 4.71914 7.4665 4.71914C8.70448 4.71914 9.71109 5.72575 9.71109 6.96374C9.71109 8.20172 8.70147 9.20833 7.4665 9.20833ZM11.8655 3.36999C11.8655 3.8177 11.505 4.17527 11.0602 4.17527C10.6125 4.17527 10.255 3.8147 10.255 3.36999C10.255 2.92527 10.6155 2.5647 11.0602 2.5647C11.505 2.5647 11.8655 2.92527 11.8655 3.36999ZM14.1522 4.18729C14.1011 3.10857 13.8547 2.15304 13.0645 1.36578C12.2772 0.578519 11.3217 0.332125 10.2429 0.278039C9.13116 0.214938 5.79883 0.214938 4.68705 0.278039C3.61133 0.32912 2.6558 0.575515 1.86553 1.36277C1.07527 2.15003 0.831881 3.10556 0.777794 4.18429C0.714694 5.29607 0.714694 8.6284 0.777794 9.74018C0.828876 10.8189 1.07527 11.7744 1.86553 12.5617C2.6558 13.349 3.60832 13.5953 4.68705 13.6494C5.79883 13.7125 9.13116 13.7125 10.2429 13.6494C11.3217 13.5984 12.2772 13.352 13.0645 12.5617C13.8517 11.7744 14.0981 10.8189 14.1522 9.74018C14.2153 8.6284 14.2153 5.29907 14.1522 4.18729ZM12.7159 10.9331C12.4815 11.522 12.0278 11.9758 11.4358 12.2131C10.5494 12.5647 8.44606 12.4836 7.4665 12.4836C6.48693 12.4836 4.38056 12.5617 3.49715 12.2131C2.9082 11.9788 2.45448 11.525 2.2171 10.9331C1.86553 10.0467 1.94666 7.9433 1.94666 6.96374C1.94666 5.98417 1.86854 3.8778 2.2171 2.99438C2.45147 2.40544 2.9052 1.95172 3.49715 1.71434C4.38356 1.36277 6.48693 1.4439 7.4665 1.4439C8.44606 1.4439 10.5524 1.36578 11.4358 1.71434C12.0248 1.94871 12.4785 2.40244 12.7159 2.99438C13.0675 3.8808 12.9863 5.98417 12.9863 6.96374C12.9863 7.9433 13.0675 10.0497 12.7159 10.9331Z" fill="#FCF7F6"/>
</svg>
