<svg width="11" height="12" viewBox="0 0 11 12" fill="none" xmlns="http://www.w3.org/2000/svg">
<path d="M6.29958 5.30387V11.4409H4.22266V3.63801H6.16977L6.29958 5.30387ZM5.99669 7.26541H5.43419C5.43419 6.68849 5.50871 6.16926 5.65775 5.70772C5.80679 5.24137 6.01593 4.84474 6.28516 4.51781C6.55439 4.18608 6.8741 3.93368 7.24429 3.7606C7.61929 3.58272 8.03756 3.49377 8.4991 3.49377C8.86448 3.49377 9.19862 3.54666 9.5015 3.65243C9.80439 3.7582 10.064 3.92647 10.2803 4.15724C10.5015 4.38801 10.6698 4.69329 10.7852 5.0731C10.9053 5.45291 10.9654 5.91685 10.9654 6.46493V11.4409H8.8741V6.45772C8.8741 6.11156 8.82602 5.84233 8.72987 5.65002C8.63371 5.45772 8.49189 5.3231 8.30439 5.24618C8.12169 5.16445 7.89573 5.12358 7.6265 5.12358C7.34766 5.12358 7.10487 5.17887 6.89814 5.28945C6.69621 5.40002 6.52794 5.55387 6.39333 5.75099C6.26352 5.94329 6.16496 6.16926 6.09766 6.42887C6.03035 6.68849 5.99669 6.96733 5.99669 7.26541Z" fill="#FCF7F6"/>
<path d="M2.253 3.63816V11.441H0.16887V3.63816H2.253ZM0.0390625 1.60451C0.0390625 1.30163 0.144832 1.05163 0.35637 0.854511C0.567909 0.657396 0.851563 0.558838 1.20733 0.558838C1.55829 0.558838 1.83954 0.657396 2.05108 0.854511C2.26743 1.05163 2.3756 1.30163 2.3756 1.60451C2.3756 1.9074 2.26743 2.1574 2.05108 2.35451C1.83954 2.55163 1.55829 2.65018 1.20733 2.65018C0.851563 2.65018 0.567909 2.55163 0.35637 2.35451C0.144832 2.1574 0.0390625 1.9074 0.0390625 1.60451Z" fill="#FCF7F6"/>
</svg>
