<svg width="24" height="24" viewBox="0 0 24 24" fill="none" xmlns="http://www.w3.org/2000/svg">
<path d="M11.9965 12.75C13.6533 12.75 14.9965 11.4069 14.9965 9.75C14.9965 8.09315 13.6533 6.75 11.9965 6.75C10.3396 6.75 8.99646 8.09315 8.99646 9.75C8.99646 11.4069 10.3396 12.75 11.9965 12.75Z" stroke="#7F39B1" stroke-width="1.5" stroke-linecap="round" stroke-linejoin="round"/>
<path d="M19.4965 9.75C19.4965 16.5 11.9965 21.75 11.9965 21.75C11.9965 21.75 4.49646 16.5 4.49646 9.75C4.49646 7.76088 5.28664 5.85322 6.69316 4.4467C8.09968 3.04018 10.0073 2.25 11.9965 2.25C13.9856 2.25 15.8932 3.04018 17.2998 4.4467C18.7063 5.85322 19.4965 7.76088 19.4965 9.75V9.75Z" stroke="#7F39B1" stroke-width="1.5" stroke-linecap="round" stroke-linejoin="round"/>
</svg>
