<svg width="24" height="24" viewBox="0 0 24 24" fill="none" xmlns="http://www.w3.org/2000/svg">
<path d="M8.66611 11.7014C9.44408 13.2919 10.7333 14.5753 12.3274 15.346C12.444 15.4013 12.573 15.4252 12.7017 15.4155C12.8304 15.4058 12.9543 15.3627 13.0613 15.2905L15.4084 13.7254C15.5122 13.6562 15.6316 13.6139 15.7559 13.6025C15.8801 13.5911 16.0052 13.6109 16.1199 13.66L20.5109 15.5419C20.6601 15.6052 20.7846 15.7154 20.8657 15.8556C20.9469 15.9959 20.9802 16.1588 20.9607 16.3197C20.822 17.4057 20.2921 18.4039 19.4703 19.1273C18.6486 19.8508 17.5913 20.2499 16.4965 20.25C13.1149 20.25 9.87194 18.9067 7.48085 16.5156C5.08976 14.1245 3.74646 10.8815 3.74646 7.49997C3.74652 6.40513 4.14564 5.34786 4.8691 4.5261C5.59256 3.70435 6.59074 3.17448 7.67674 3.03569C7.83763 3.01622 8.00049 3.04956 8.14078 3.1307C8.28107 3.21183 8.39119 3.33636 8.45456 3.48552L10.338 7.88032C10.3868 7.994 10.4066 8.11796 10.3958 8.24116C10.385 8.36436 10.344 8.48299 10.2762 8.58647L8.71657 10.9696C8.64558 11.0768 8.60362 11.2006 8.59477 11.3288C8.58593 11.4571 8.61051 11.5855 8.66611 11.7014V11.7014Z" stroke="#7F39B1" stroke-width="1.5" stroke-linecap="round" stroke-linejoin="round"/>
</svg>
