<svg width="18" height="15" viewBox="0 0 18 15" fill="none" xmlns="http://www.w3.org/2000/svg">
<path d="M17.9965 1.73137C17.3271 2.025 16.6138 2.21962 15.8702 2.31412C16.6352 1.85737 17.2191 1.13962 17.4936 0.2745C16.7803 0.69975 15.9928 1.00013 15.1536 1.16775C14.4763 0.446625 13.5111 0 12.4581 0C10.4151 0 8.77033 1.65825 8.77033 3.69113C8.77033 3.98363 8.79508 4.26487 8.85583 4.53262C5.78796 4.383 3.07333 2.91263 1.24971 0.67275C0.931335 1.22513 0.744585 1.85738 0.744585 2.538C0.744585 3.816 1.40271 4.94887 2.38371 5.60475C1.79083 5.5935 1.20921 5.42138 0.71646 5.15025C0.71646 5.1615 0.71646 5.17613 0.71646 5.19075C0.71646 6.984 1.99558 8.4735 3.67296 8.81662C3.37258 8.89875 3.04521 8.93812 2.70546 8.93812C2.46921 8.93812 2.23071 8.92463 2.00683 8.87512C2.48496 10.3365 3.84171 11.4109 5.45496 11.4457C4.19946 12.4279 2.60533 13.0196 0.879585 13.0196C0.57696 13.0196 0.28671 13.0061 -0.00354004 12.969C1.63108 14.0231 3.56834 14.625 5.65746 14.625C12.448 14.625 16.1605 9 16.1605 4.12425C16.1605 3.96112 16.1548 3.80363 16.147 3.64725C16.8793 3.1275 17.4947 2.47837 17.9965 1.73137Z" fill="#7F39B1"/>
</svg>
