<svg width="17" height="14" viewBox="0 0 17 14" fill="none" xmlns="http://www.w3.org/2000/svg">
<path d="M14.6118 3.86644C14.6215 4.0031 14.6215 4.13979 14.6215 4.27645C14.6215 8.44472 11.449 13.2475 5.65045 13.2475C3.86403 13.2475 2.20454 12.7301 0.808594 11.8321C1.06241 11.8614 1.30643 11.8711 1.57001 11.8711C3.04402 11.8711 4.40093 11.3733 5.48449 10.524C4.09832 10.4947 2.93666 9.58688 2.53642 8.33736C2.73167 8.36662 2.92689 8.38615 3.13191 8.38615C3.41499 8.38615 3.69811 8.34709 3.96166 8.27879C2.51692 7.98591 1.43332 6.71689 1.43332 5.18429V5.14526C1.85306 5.37954 2.3412 5.52597 2.85853 5.54547C2.00925 4.97927 1.45285 4.01287 1.45285 2.91954C1.45285 2.33384 1.60901 1.79694 1.88236 1.32837C3.43449 3.24168 5.76758 4.49117 8.38371 4.62786C8.33492 4.39358 8.30562 4.14956 8.30562 3.90551C8.30562 2.16789 9.71133 0.752441 11.4587 0.752441C12.3665 0.752441 13.1865 1.13315 13.7625 1.74814C14.4751 1.61149 15.1584 1.3479 15.7636 0.986726C15.5293 1.71888 15.0315 2.33387 14.3775 2.72432C15.012 2.65602 15.627 2.48027 16.1931 2.23625C15.7637 2.86098 15.2268 3.41738 14.6118 3.86644Z" fill="#FCF7F6"/>
</svg>
