<svg width="843" height="135" viewBox="0 0 843 135" fill="none" xmlns="http://www.w3.org/2000/svg">
<mask id="path-1-outside-1_869_19862" maskUnits="userSpaceOnUse" x="0" y="0" width="843" height="135" fill="black">
<rect fill="white" width="843" height="135"/>
<path d="M19.96 114V21.84H80.12V38.096H37.368V57.808H72.44V74.064H37.368V97.744H80.12V114H19.96ZM95.46 114V21.84H134.372C135.268 21.84 136.463 21.8827 137.956 21.968C139.492 22.0107 140.857 22.1387 142.052 22.352C147.556 23.2053 152.057 25.0187 155.556 27.792C159.097 30.5653 161.7 34.064 163.364 38.288C165.028 42.4693 165.86 47.1413 165.86 52.304C165.86 60.0267 163.94 66.64 160.1 72.144C156.26 77.6053 150.244 80.976 142.052 82.256L134.372 82.768H112.868V114H95.46ZM147.428 114L129.252 76.496L147.172 73.04L167.14 114H147.428ZM112.868 66.512H133.604C134.5 66.512 135.481 66.4693 136.548 66.384C137.615 66.2987 138.596 66.128 139.492 65.872C141.839 65.232 143.652 64.1653 144.932 62.672C146.212 61.136 147.087 59.4507 147.556 57.616C148.068 55.7387 148.324 53.968 148.324 52.304C148.324 50.64 148.068 48.8907 147.556 47.056C147.087 45.1787 146.212 43.4933 144.932 42C143.652 40.464 141.839 39.376 139.492 38.736C138.596 38.48 137.615 38.3093 136.548 38.224C135.481 38.1387 134.5 38.096 133.604 38.096H112.868V66.512ZM181.21 114V21.84H220.122C221.018 21.84 222.213 21.8827 223.706 21.968C225.242 22.0107 226.607 22.1387 227.802 22.352C233.306 23.2053 237.807 25.0187 241.306 27.792C244.847 30.5653 247.45 34.064 249.114 38.288C250.778 42.4693 251.61 47.1413 251.61 52.304C251.61 60.0267 249.69 66.64 245.85 72.144C242.01 77.6053 235.994 80.976 227.802 82.256L220.122 82.768H198.618V114H181.21ZM233.178 114L215.002 76.496L232.922 73.04L252.89 114H233.178ZM198.618 66.512H219.354C220.25 66.512 221.231 66.4693 222.298 66.384C223.365 66.2987 224.346 66.128 225.242 65.872C227.589 65.232 229.402 64.1653 230.682 62.672C231.962 61.136 232.837 59.4507 233.306 57.616C233.818 55.7387 234.074 53.968 234.074 52.304C234.074 50.64 233.818 48.8907 233.306 47.056C232.837 45.1787 231.962 43.4933 230.682 42C229.402 40.464 227.589 39.376 225.242 38.736C224.346 38.48 223.365 38.3093 222.298 38.224C221.231 38.1387 220.25 38.096 219.354 38.096H198.618V66.512ZM306.512 115.92C297.296 115.92 289.339 113.915 282.64 109.904C275.984 105.893 270.843 100.283 267.216 93.072C263.632 85.8613 261.84 77.4773 261.84 67.92C261.84 58.3627 263.632 49.9787 267.216 42.768C270.843 35.5573 275.984 29.9467 282.64 25.936C289.339 21.9253 297.296 19.92 306.512 19.92C315.728 19.92 323.664 21.9253 330.32 25.936C337.019 29.9467 342.16 35.5573 345.744 42.768C349.371 49.9787 351.184 58.3627 351.184 67.92C351.184 77.4773 349.371 85.8613 345.744 93.072C342.16 100.283 337.019 105.893 330.32 109.904C323.664 113.915 315.728 115.92 306.512 115.92ZM306.512 99.536C312.357 99.6213 317.221 98.3627 321.104 95.76C324.987 93.1573 327.888 89.4667 329.808 84.688C331.771 79.9093 332.752 74.32 332.752 67.92C332.752 61.52 331.771 55.9733 329.808 51.28C327.888 46.5867 324.987 42.9387 321.104 40.336C317.221 37.7333 312.357 36.3893 306.512 36.304C300.667 36.2187 295.803 37.4773 291.92 40.08C288.037 42.6827 285.115 46.3733 283.152 51.152C281.232 55.9307 280.272 61.52 280.272 67.92C280.272 74.32 281.232 79.8667 283.152 84.56C285.115 89.2533 288.037 92.9013 291.92 95.504C295.803 98.1067 300.667 99.4507 306.512 99.536ZM363.96 114V21.84H402.872C403.768 21.84 404.963 21.8827 406.456 21.968C407.992 22.0107 409.357 22.1387 410.552 22.352C416.056 23.2053 420.557 25.0187 424.056 27.792C427.597 30.5653 430.2 34.064 431.864 38.288C433.528 42.4693 434.36 47.1413 434.36 52.304C434.36 60.0267 432.44 66.64 428.6 72.144C424.76 77.6053 418.744 80.976 410.552 82.256L402.872 82.768H381.368V114H363.96ZM415.928 114L397.752 76.496L415.672 73.04L435.64 114H415.928ZM381.368 66.512H402.104C403 66.512 403.981 66.4693 405.048 66.384C406.115 66.2987 407.096 66.128 407.992 65.872C410.339 65.232 412.152 64.1653 413.432 62.672C414.712 61.136 415.587 59.4507 416.056 57.616C416.568 55.7387 416.824 53.968 416.824 52.304C416.824 50.64 416.568 48.8907 416.056 47.056C415.587 45.1787 414.712 43.4933 413.432 42C412.152 40.464 410.339 39.376 407.992 38.736C407.096 38.48 406.115 38.3093 405.048 38.224C403.981 38.1387 403 38.096 402.104 38.096H381.368V66.512ZM489.799 113.872L496.327 89.808H474.055L478.407 73.424H500.679L504.135 60.24H481.863L486.343 43.984H508.487L514.503 21.84H531.399L525.383 43.984H539.207L545.223 21.84H562.119L556.103 43.984H578.375L574.023 60.24H551.751L548.167 73.424H570.439L566.087 89.808H543.815L537.415 113.872H520.519L526.919 89.808H513.095L506.695 113.872H489.799ZM517.575 73.424H531.271L534.855 60.24H521.031L517.575 73.424ZM632.464 114V99.664H592.4V83.408L621.456 21.84H641.424L612.368 83.408H632.464V60.368H650.128V83.408H658.32V99.664H650.128V114H632.464ZM707.886 115.92C701.059 115.92 695.086 114.491 689.966 111.632C684.846 108.773 680.857 104.784 677.998 99.664C675.139 94.544 673.71 88.5707 673.71 81.744V54.096C673.71 47.2693 675.139 41.296 677.998 36.176C680.857 31.056 684.846 27.0667 689.966 24.208C695.086 21.3493 701.059 19.92 707.886 19.92C714.713 19.92 720.686 21.3493 725.806 24.208C730.926 27.0667 734.915 31.056 737.774 36.176C740.633 41.296 742.062 47.2693 742.062 54.096V81.744C742.062 88.5707 740.633 94.544 737.774 99.664C734.915 104.784 730.926 108.773 725.806 111.632C720.686 114.491 714.713 115.92 707.886 115.92ZM707.886 99.408C710.958 99.408 713.731 98.6827 716.206 97.232C718.681 95.7813 720.643 93.8187 722.094 91.344C723.545 88.8693 724.27 86.096 724.27 83.024V52.688C724.27 49.616 723.545 46.8427 722.094 44.368C720.643 41.8933 718.681 39.9307 716.206 38.48C713.731 37.0293 710.958 36.304 707.886 36.304C704.814 36.304 702.041 37.0293 699.566 38.48C697.091 39.9307 695.129 41.8933 693.678 44.368C692.227 46.8427 691.502 49.616 691.502 52.688V83.024C691.502 86.096 692.227 88.8693 693.678 91.344C695.129 93.8187 697.091 95.7813 699.566 97.232C702.041 98.6827 704.814 99.408 707.886 99.408ZM797.464 114V99.664H757.4V83.408L786.456 21.84H806.424L777.368 83.408H797.464V60.368H815.128V83.408H823.32V99.664H815.128V114H797.464Z"/>
</mask>
<path d="M19.96 114V21.84H80.12V38.096H37.368V57.808H72.44V74.064H37.368V97.744H80.12V114H19.96ZM95.46 114V21.84H134.372C135.268 21.84 136.463 21.8827 137.956 21.968C139.492 22.0107 140.857 22.1387 142.052 22.352C147.556 23.2053 152.057 25.0187 155.556 27.792C159.097 30.5653 161.7 34.064 163.364 38.288C165.028 42.4693 165.86 47.1413 165.86 52.304C165.86 60.0267 163.94 66.64 160.1 72.144C156.26 77.6053 150.244 80.976 142.052 82.256L134.372 82.768H112.868V114H95.46ZM147.428 114L129.252 76.496L147.172 73.04L167.14 114H147.428ZM112.868 66.512H133.604C134.5 66.512 135.481 66.4693 136.548 66.384C137.615 66.2987 138.596 66.128 139.492 65.872C141.839 65.232 143.652 64.1653 144.932 62.672C146.212 61.136 147.087 59.4507 147.556 57.616C148.068 55.7387 148.324 53.968 148.324 52.304C148.324 50.64 148.068 48.8907 147.556 47.056C147.087 45.1787 146.212 43.4933 144.932 42C143.652 40.464 141.839 39.376 139.492 38.736C138.596 38.48 137.615 38.3093 136.548 38.224C135.481 38.1387 134.5 38.096 133.604 38.096H112.868V66.512ZM181.21 114V21.84H220.122C221.018 21.84 222.213 21.8827 223.706 21.968C225.242 22.0107 226.607 22.1387 227.802 22.352C233.306 23.2053 237.807 25.0187 241.306 27.792C244.847 30.5653 247.45 34.064 249.114 38.288C250.778 42.4693 251.61 47.1413 251.61 52.304C251.61 60.0267 249.69 66.64 245.85 72.144C242.01 77.6053 235.994 80.976 227.802 82.256L220.122 82.768H198.618V114H181.21ZM233.178 114L215.002 76.496L232.922 73.04L252.89 114H233.178ZM198.618 66.512H219.354C220.25 66.512 221.231 66.4693 222.298 66.384C223.365 66.2987 224.346 66.128 225.242 65.872C227.589 65.232 229.402 64.1653 230.682 62.672C231.962 61.136 232.837 59.4507 233.306 57.616C233.818 55.7387 234.074 53.968 234.074 52.304C234.074 50.64 233.818 48.8907 233.306 47.056C232.837 45.1787 231.962 43.4933 230.682 42C229.402 40.464 227.589 39.376 225.242 38.736C224.346 38.48 223.365 38.3093 222.298 38.224C221.231 38.1387 220.25 38.096 219.354 38.096H198.618V66.512ZM306.512 115.92C297.296 115.92 289.339 113.915 282.64 109.904C275.984 105.893 270.843 100.283 267.216 93.072C263.632 85.8613 261.84 77.4773 261.84 67.92C261.84 58.3627 263.632 49.9787 267.216 42.768C270.843 35.5573 275.984 29.9467 282.64 25.936C289.339 21.9253 297.296 19.92 306.512 19.92C315.728 19.92 323.664 21.9253 330.32 25.936C337.019 29.9467 342.16 35.5573 345.744 42.768C349.371 49.9787 351.184 58.3627 351.184 67.92C351.184 77.4773 349.371 85.8613 345.744 93.072C342.16 100.283 337.019 105.893 330.32 109.904C323.664 113.915 315.728 115.92 306.512 115.92ZM306.512 99.536C312.357 99.6213 317.221 98.3627 321.104 95.76C324.987 93.1573 327.888 89.4667 329.808 84.688C331.771 79.9093 332.752 74.32 332.752 67.92C332.752 61.52 331.771 55.9733 329.808 51.28C327.888 46.5867 324.987 42.9387 321.104 40.336C317.221 37.7333 312.357 36.3893 306.512 36.304C300.667 36.2187 295.803 37.4773 291.92 40.08C288.037 42.6827 285.115 46.3733 283.152 51.152C281.232 55.9307 280.272 61.52 280.272 67.92C280.272 74.32 281.232 79.8667 283.152 84.56C285.115 89.2533 288.037 92.9013 291.92 95.504C295.803 98.1067 300.667 99.4507 306.512 99.536ZM363.96 114V21.84H402.872C403.768 21.84 404.963 21.8827 406.456 21.968C407.992 22.0107 409.357 22.1387 410.552 22.352C416.056 23.2053 420.557 25.0187 424.056 27.792C427.597 30.5653 430.2 34.064 431.864 38.288C433.528 42.4693 434.36 47.1413 434.36 52.304C434.36 60.0267 432.44 66.64 428.6 72.144C424.76 77.6053 418.744 80.976 410.552 82.256L402.872 82.768H381.368V114H363.96ZM415.928 114L397.752 76.496L415.672 73.04L435.64 114H415.928ZM381.368 66.512H402.104C403 66.512 403.981 66.4693 405.048 66.384C406.115 66.2987 407.096 66.128 407.992 65.872C410.339 65.232 412.152 64.1653 413.432 62.672C414.712 61.136 415.587 59.4507 416.056 57.616C416.568 55.7387 416.824 53.968 416.824 52.304C416.824 50.64 416.568 48.8907 416.056 47.056C415.587 45.1787 414.712 43.4933 413.432 42C412.152 40.464 410.339 39.376 407.992 38.736C407.096 38.48 406.115 38.3093 405.048 38.224C403.981 38.1387 403 38.096 402.104 38.096H381.368V66.512ZM489.799 113.872L496.327 89.808H474.055L478.407 73.424H500.679L504.135 60.24H481.863L486.343 43.984H508.487L514.503 21.84H531.399L525.383 43.984H539.207L545.223 21.84H562.119L556.103 43.984H578.375L574.023 60.24H551.751L548.167 73.424H570.439L566.087 89.808H543.815L537.415 113.872H520.519L526.919 89.808H513.095L506.695 113.872H489.799ZM517.575 73.424H531.271L534.855 60.24H521.031L517.575 73.424ZM632.464 114V99.664H592.4V83.408L621.456 21.84H641.424L612.368 83.408H632.464V60.368H650.128V83.408H658.32V99.664H650.128V114H632.464ZM707.886 115.92C701.059 115.92 695.086 114.491 689.966 111.632C684.846 108.773 680.857 104.784 677.998 99.664C675.139 94.544 673.71 88.5707 673.71 81.744V54.096C673.71 47.2693 675.139 41.296 677.998 36.176C680.857 31.056 684.846 27.0667 689.966 24.208C695.086 21.3493 701.059 19.92 707.886 19.92C714.713 19.92 720.686 21.3493 725.806 24.208C730.926 27.0667 734.915 31.056 737.774 36.176C740.633 41.296 742.062 47.2693 742.062 54.096V81.744C742.062 88.5707 740.633 94.544 737.774 99.664C734.915 104.784 730.926 108.773 725.806 111.632C720.686 114.491 714.713 115.92 707.886 115.92ZM707.886 99.408C710.958 99.408 713.731 98.6827 716.206 97.232C718.681 95.7813 720.643 93.8187 722.094 91.344C723.545 88.8693 724.27 86.096 724.27 83.024V52.688C724.27 49.616 723.545 46.8427 722.094 44.368C720.643 41.8933 718.681 39.9307 716.206 38.48C713.731 37.0293 710.958 36.304 707.886 36.304C704.814 36.304 702.041 37.0293 699.566 38.48C697.091 39.9307 695.129 41.8933 693.678 44.368C692.227 46.8427 691.502 49.616 691.502 52.688V83.024C691.502 86.096 692.227 88.8693 693.678 91.344C695.129 93.8187 697.091 95.7813 699.566 97.232C702.041 98.6827 704.814 99.408 707.886 99.408ZM797.464 114V99.664H757.4V83.408L786.456 21.84H806.424L777.368 83.408H797.464V60.368H815.128V83.408H823.32V99.664H815.128V114H797.464Z" fill="#303030"/>
<path d="M19.96 114H0.96V133H19.96V114ZM19.96 21.84V2.84H0.96V21.84H19.96ZM80.12 21.84H99.12V2.84H80.12V21.84ZM80.12 38.096V57.096H99.12V38.096H80.12ZM37.368 38.096V19.096H18.368V38.096H37.368ZM37.368 57.808H18.368V76.808H37.368V57.808ZM72.44 57.808H91.44V38.808H72.44V57.808ZM72.44 74.064V93.064H91.44V74.064H72.44ZM37.368 74.064V55.064H18.368V74.064H37.368ZM37.368 97.744H18.368V116.744H37.368V97.744ZM80.12 97.744H99.12V78.744H80.12V97.744ZM80.12 114V133H99.12V114H80.12ZM38.96 114V21.84H0.96V114H38.96ZM19.96 40.84H80.12V2.84H19.96V40.84ZM61.12 21.84V38.096H99.12V21.84H61.12ZM80.12 19.096H37.368V57.096H80.12V19.096ZM18.368 38.096V57.808H56.368V38.096H18.368ZM37.368 76.808H72.44V38.808H37.368V76.808ZM53.44 57.808V74.064H91.44V57.808H53.44ZM72.44 55.064H37.368V93.064H72.44V55.064ZM18.368 74.064V97.744H56.368V74.064H18.368ZM37.368 116.744H80.12V78.744H37.368V116.744ZM61.12 97.744V114H99.12V97.744H61.12ZM80.12 95H19.96V133H80.12V95ZM95.46 114H76.46V133H95.46V114ZM95.46 21.84V2.84H76.46V21.84H95.46ZM137.956 21.968L136.872 40.937L137.15 40.9529L137.428 40.9607L137.956 21.968ZM142.052 22.352L138.712 41.0561L138.926 41.0944L139.141 41.1277L142.052 22.352ZM155.556 27.792L143.753 42.6815L143.797 42.7163L143.841 42.7508L155.556 27.792ZM163.364 38.288L145.686 45.252L145.698 45.2827L145.711 45.3133L163.364 38.288ZM160.1 72.144L175.643 83.0724L175.663 83.0439L175.682 83.0154L160.1 72.144ZM142.052 82.256L143.316 101.214L144.155 101.158L144.985 101.028L142.052 82.256ZM134.372 82.768V101.768H135.005L135.636 101.726L134.372 82.768ZM112.868 82.768V63.768H93.868V82.768H112.868ZM112.868 114V133H131.868V114H112.868ZM147.428 114L130.33 122.286L135.522 133H147.428V114ZM129.252 76.496L125.654 57.8398L101.367 62.5238L112.154 84.7823L129.252 76.496ZM147.172 73.04L164.251 64.7142L157.87 51.6266L143.574 54.3838L147.172 73.04ZM167.14 114V133H197.54L184.219 105.674L167.14 114ZM112.868 66.512H93.868V85.512H112.868V66.512ZM136.548 66.384L138.063 85.3235L138.063 85.3235L136.548 66.384ZM139.492 65.872L134.493 47.5415L134.382 47.5716L134.272 47.603L139.492 65.872ZM144.932 62.672L159.358 75.037L159.444 74.9369L159.528 74.8355L144.932 62.672ZM147.556 57.616L129.225 52.6168L129.186 52.7617L129.149 52.9072L147.556 57.616ZM147.556 47.056L129.123 51.6642L129.186 51.9146L129.255 52.1632L147.556 47.056ZM144.932 42L130.336 54.1635L130.42 54.2649L130.506 54.365L144.932 42ZM139.492 38.736L134.272 57.0049L134.382 57.0364L134.493 57.0665L139.492 38.736ZM136.548 38.224L135.033 57.1635L135.033 57.1635L136.548 38.224ZM112.868 38.096V19.096H93.868V38.096H112.868ZM114.46 114V21.84H76.46V114H114.46ZM95.46 40.84H134.372V2.84H95.46V40.84ZM134.372 40.84C134.748 40.84 135.536 40.8607 136.872 40.937L139.04 2.99894C137.389 2.90463 135.788 2.84 134.372 2.84V40.84ZM137.428 40.9607C138.257 40.9837 138.653 41.0455 138.712 41.0561L145.392 3.64787C143.062 3.23181 140.727 3.03765 138.484 2.97532L137.428 40.9607ZM139.141 41.1277C142.189 41.6003 143.396 42.3986 143.753 42.6815L167.359 12.9025C160.718 7.63872 152.923 4.81041 144.963 3.57631L139.141 41.1277ZM143.841 42.7508C144.692 43.4174 145.25 44.1455 145.686 45.252L181.042 31.324C178.15 23.9825 173.502 17.7133 167.271 12.8332L143.841 42.7508ZM145.711 45.3133C146.364 46.9552 146.86 49.1967 146.86 52.304H184.86C184.86 45.0859 183.692 37.9835 181.017 31.2627L145.711 45.3133ZM146.86 52.304C146.86 56.7439 145.81 59.4202 144.518 61.2726L175.682 83.0154C182.07 73.8598 184.86 63.3094 184.86 52.304H146.86ZM144.557 61.2156C144.368 61.4853 143.529 62.7946 139.119 63.4838L144.985 101.028C156.959 99.1574 168.152 93.7254 175.643 83.0724L144.557 61.2156ZM140.788 63.2981L133.108 63.8101L135.636 101.726L143.316 101.214L140.788 63.2981ZM134.372 63.768H112.868V101.768H134.372V63.768ZM93.868 82.768V114H131.868V82.768H93.868ZM112.868 95H95.46V133H112.868V95ZM164.526 105.714L146.35 68.2097L112.154 84.7823L130.33 122.286L164.526 105.714ZM132.85 95.1522L150.77 91.6962L143.574 54.3838L125.654 57.8398L132.85 95.1522ZM130.093 81.3658L150.061 122.326L184.219 105.674L164.251 64.7142L130.093 81.3658ZM167.14 95H147.428V133H167.14V95ZM112.868 85.512H133.604V47.512H112.868V85.512ZM133.604 85.512C135.091 85.512 136.586 85.4417 138.063 85.3235L135.033 47.4445C134.377 47.497 133.909 47.512 133.604 47.512V85.512ZM138.063 85.3235C140.203 85.1523 142.444 84.789 144.712 84.141L134.272 47.603C134.748 47.467 135.026 47.4451 135.033 47.4445L138.063 85.3235ZM144.491 84.2025C149.632 82.8005 155.073 80.0363 159.358 75.037L130.506 50.307C132.231 48.2944 134.045 47.6635 134.493 47.5415L144.491 84.2025ZM159.528 74.8355C162.514 71.2529 164.755 67.049 165.963 62.3248L129.149 52.9072C129.419 51.8523 129.91 51.0191 130.336 50.5085L159.528 74.8355ZM165.887 62.6152C166.77 59.3766 167.324 55.9136 167.324 52.304H129.324C129.324 52.0224 129.366 52.1008 129.225 52.6168L165.887 62.6152ZM167.324 52.304C167.324 48.6855 166.767 45.2111 165.857 41.9488L129.255 52.1632C129.369 52.5703 129.324 52.5945 129.324 52.304H167.324ZM165.989 42.4478C164.792 37.6606 162.525 33.3298 159.358 29.635L130.506 54.365C129.899 53.6569 129.381 52.6967 129.123 51.6642L165.989 42.4478ZM159.528 29.8365C155.259 24.714 149.767 21.8444 144.491 20.4055L134.493 57.0665C133.91 56.9076 132.045 56.214 130.336 54.1635L159.528 29.8365ZM144.712 20.4671C142.444 19.819 140.203 19.4557 138.063 19.2845L135.033 57.1635C135.026 57.1629 134.748 57.141 134.272 57.0049L144.712 20.4671ZM138.063 19.2845C136.586 19.1663 135.091 19.096 133.604 19.096V57.096C133.909 57.096 134.377 57.111 135.033 57.1635L138.063 19.2845ZM133.604 19.096H112.868V57.096H133.604V19.096ZM93.868 38.096V66.512H131.868V38.096H93.868ZM181.21 114H162.21V133H181.21V114ZM181.21 21.84V2.84H162.21V21.84H181.21ZM223.706 21.968L222.622 40.937L222.9 40.9529L223.178 40.9607L223.706 21.968ZM227.802 22.352L224.462 41.0561L224.676 41.0944L224.891 41.1277L227.802 22.352ZM241.306 27.792L229.503 42.6815L229.547 42.7163L229.591 42.7508L241.306 27.792ZM249.114 38.288L231.436 45.252L231.448 45.2827L231.461 45.3133L249.114 38.288ZM245.85 72.144L261.393 83.0724L261.413 83.0439L261.432 83.0154L245.85 72.144ZM227.802 82.256L229.066 101.214L229.905 101.158L230.735 101.028L227.802 82.256ZM220.122 82.768V101.768H220.755L221.386 101.726L220.122 82.768ZM198.618 82.768V63.768H179.618V82.768H198.618ZM198.618 114V133H217.618V114H198.618ZM233.178 114L216.08 122.286L221.272 133H233.178V114ZM215.002 76.496L211.404 57.8398L187.117 62.5238L197.904 84.7823L215.002 76.496ZM232.922 73.04L250.001 64.7142L243.62 51.6266L229.324 54.3838L232.922 73.04ZM252.89 114V133H283.29L269.969 105.674L252.89 114ZM198.618 66.512H179.618V85.512H198.618V66.512ZM222.298 66.384L223.813 85.3235L223.813 85.3235L222.298 66.384ZM225.242 65.872L220.243 47.5415L220.132 47.5716L220.022 47.603L225.242 65.872ZM230.682 62.672L245.108 75.037L245.194 74.9369L245.278 74.8355L230.682 62.672ZM233.306 57.616L214.975 52.6168L214.936 52.7617L214.899 52.9072L233.306 57.616ZM233.306 47.056L214.873 51.6642L214.936 51.9146L215.005 52.1632L233.306 47.056ZM230.682 42L216.086 54.1635L216.17 54.2649L216.256 54.365L230.682 42ZM225.242 38.736L220.022 57.0049L220.132 57.0364L220.243 57.0665L225.242 38.736ZM222.298 38.224L220.783 57.1635L220.783 57.1635L222.298 38.224ZM198.618 38.096V19.096H179.618V38.096H198.618ZM200.21 114V21.84H162.21V114H200.21ZM181.21 40.84H220.122V2.84H181.21V40.84ZM220.122 40.84C220.498 40.84 221.286 40.8607 222.622 40.937L224.79 2.99894C223.139 2.90463 221.538 2.84 220.122 2.84V40.84ZM223.178 40.9607C224.007 40.9837 224.403 41.0455 224.462 41.0561L231.142 3.64787C228.812 3.23181 226.477 3.03765 224.234 2.97532L223.178 40.9607ZM224.891 41.1277C227.939 41.6003 229.146 42.3986 229.503 42.6815L253.109 12.9025C246.468 7.63872 238.673 4.81041 230.713 3.57631L224.891 41.1277ZM229.591 42.7508C230.442 43.4174 231 44.1455 231.436 45.252L266.792 31.324C263.9 23.9825 259.252 17.7133 253.021 12.8332L229.591 42.7508ZM231.461 45.3133C232.114 46.9552 232.61 49.1967 232.61 52.304H270.61C270.61 45.0859 269.442 37.9835 266.767 31.2627L231.461 45.3133ZM232.61 52.304C232.61 56.7439 231.56 59.4202 230.268 61.2726L261.432 83.0154C267.82 73.8598 270.61 63.3094 270.61 52.304H232.61ZM230.307 61.2156C230.118 61.4853 229.279 62.7946 224.869 63.4838L230.735 101.028C242.709 99.1574 253.902 93.7254 261.393 83.0724L230.307 61.2156ZM226.538 63.2981L218.858 63.8101L221.386 101.726L229.066 101.214L226.538 63.2981ZM220.122 63.768H198.618V101.768H220.122V63.768ZM179.618 82.768V114H217.618V82.768H179.618ZM198.618 95H181.21V133H198.618V95ZM250.276 105.714L232.1 68.2097L197.904 84.7823L216.08 122.286L250.276 105.714ZM218.6 95.1522L236.52 91.6962L229.324 54.3838L211.404 57.8398L218.6 95.1522ZM215.843 81.3658L235.811 122.326L269.969 105.674L250.001 64.7142L215.843 81.3658ZM252.89 95H233.178V133H252.89V95ZM198.618 85.512H219.354V47.512H198.618V85.512ZM219.354 85.512C220.841 85.512 222.336 85.4417 223.813 85.3235L220.783 47.4445C220.127 47.497 219.659 47.512 219.354 47.512V85.512ZM223.813 85.3235C225.953 85.1523 228.194 84.789 230.462 84.141L220.022 47.603C220.498 47.467 220.776 47.4451 220.783 47.4445L223.813 85.3235ZM230.241 84.2025C235.382 82.8005 240.823 80.0363 245.108 75.037L216.256 50.307C217.981 48.2944 219.795 47.6635 220.243 47.5415L230.241 84.2025ZM245.278 74.8355C248.264 71.2529 250.505 67.049 251.713 62.3248L214.899 52.9072C215.169 51.8523 215.66 51.0191 216.086 50.5085L245.278 74.8355ZM251.637 62.6152C252.52 59.3766 253.074 55.9136 253.074 52.304H215.074C215.074 52.0224 215.116 52.1008 214.975 52.6168L251.637 62.6152ZM253.074 52.304C253.074 48.6855 252.517 45.2111 251.607 41.9488L215.005 52.1632C215.119 52.5703 215.074 52.5945 215.074 52.304H253.074ZM251.739 42.4478C250.542 37.6606 248.275 33.3298 245.108 29.635L216.256 54.365C215.649 53.6569 215.131 52.6967 214.873 51.6642L251.739 42.4478ZM245.278 29.8365C241.009 24.714 235.517 21.8444 230.241 20.4055L220.243 57.0665C219.66 56.9076 217.795 56.214 216.086 54.1635L245.278 29.8365ZM230.462 20.4671C228.194 19.819 225.953 19.4557 223.813 19.2845L220.783 57.1635C220.776 57.1629 220.498 57.141 220.022 57.0049L230.462 20.4671ZM223.813 19.2845C222.336 19.1663 220.841 19.096 219.354 19.096V57.096C219.659 57.096 220.127 57.111 220.783 57.1635L223.813 19.2845ZM219.354 19.096H198.618V57.096H219.354V19.096ZM179.618 38.096V66.512H217.618V38.096H179.618ZM282.64 109.904L272.834 126.178L272.857 126.192L272.88 126.206L282.64 109.904ZM267.216 93.072L250.202 101.529L250.222 101.569L250.242 101.609L267.216 93.072ZM267.216 42.768L250.242 34.2308L250.222 34.271L250.202 34.3112L267.216 42.768ZM282.64 25.936L272.88 9.63448L272.857 9.64824L272.834 9.66207L282.64 25.936ZM330.32 25.936L320.514 42.2099L320.537 42.2238L320.56 42.2375L330.32 25.936ZM345.744 42.768L328.73 51.2248L328.75 51.265L328.77 51.3052L345.744 42.768ZM345.744 93.072L328.77 84.5348L328.75 84.575L328.73 84.6152L345.744 93.072ZM330.32 109.904L320.56 93.6025L320.537 93.6162L320.514 93.6301L330.32 109.904ZM306.512 99.536L306.235 118.534L306.512 99.536ZM321.104 95.76L331.683 111.542L321.104 95.76ZM329.808 84.688L312.233 77.4695L312.205 77.5369L312.178 77.6044L329.808 84.688ZM329.808 51.28L312.223 58.474L312.251 58.5423L312.279 58.6103L329.808 51.28ZM321.104 40.336L331.683 24.5538V24.5538L321.104 40.336ZM306.512 36.304L306.789 17.306H306.789L306.512 36.304ZM283.152 51.152L265.577 43.9335L265.549 44.0009L265.522 44.0684L283.152 51.152ZM283.152 84.56L265.567 91.754L265.595 91.8223L265.623 91.8903L283.152 84.56ZM291.92 95.504L281.341 111.286L291.92 95.504ZM306.512 96.92C300.108 96.92 295.655 95.5513 292.4 93.6025L272.88 126.206C283.022 132.278 294.484 134.92 306.512 134.92V96.92ZM292.446 93.6301C288.984 91.544 286.271 88.6721 284.19 84.5348L250.242 101.609C255.414 111.893 262.984 120.243 272.834 126.178L292.446 93.6301ZM284.23 84.6152C282.175 80.4799 280.84 75.0874 280.84 67.92H242.84C242.84 79.8673 245.089 91.2427 250.202 101.529L284.23 84.6152ZM280.84 67.92C280.84 60.7526 282.175 55.3601 284.23 51.2248L250.202 34.3112C245.089 44.5973 242.84 55.9727 242.84 67.92H280.84ZM284.19 51.3052C286.271 47.1679 288.984 44.296 292.446 42.2099L272.834 9.66207C262.984 15.5974 255.414 23.9467 250.242 34.2308L284.19 51.3052ZM292.4 42.2375C295.655 40.2887 300.108 38.92 306.512 38.92V0.919998C294.484 0.919998 283.022 3.56195 272.88 9.63448L292.4 42.2375ZM306.512 38.92C312.92 38.92 317.328 40.29 320.514 42.2099L340.126 9.66207C330 3.56065 318.536 0.919998 306.512 0.919998V38.92ZM320.56 42.2375C324.038 44.3202 326.71 47.1614 328.73 51.2248L362.758 34.3112C357.61 23.9533 349.999 15.5732 340.08 9.63448L320.56 42.2375ZM328.77 51.3052C330.84 55.4216 332.184 60.7848 332.184 67.92H370.184C370.184 55.9405 367.901 44.5358 362.718 34.2308L328.77 51.3052ZM332.184 67.92C332.184 75.0552 330.84 80.4184 328.77 84.5348L362.718 101.609C367.901 91.3042 370.184 79.8995 370.184 67.92H332.184ZM328.73 84.6152C326.71 88.6786 324.038 91.5198 320.56 93.6025L340.08 126.206C349.999 120.267 357.61 111.887 362.758 101.529L328.73 84.6152ZM320.514 93.6301C317.328 95.55 312.92 96.92 306.512 96.92V134.92C318.536 134.92 330 132.279 340.126 126.178L320.514 93.6301ZM306.235 118.534C314.968 118.661 323.869 116.78 331.683 111.542L310.525 79.9778C310.491 80.0004 310.299 80.1288 309.784 80.2619C309.239 80.4029 308.284 80.5598 306.789 80.538L306.235 118.534ZM331.683 111.542C339.057 106.599 344.246 99.7161 347.438 91.7716L312.178 77.6044C311.53 79.2172 310.916 79.7156 310.525 79.9778L331.683 111.542ZM347.383 91.9065C350.482 84.3614 351.752 76.2234 351.752 67.92H313.752C313.752 72.4166 313.059 75.4572 312.233 77.4695L347.383 91.9065ZM351.752 67.92C351.752 59.6295 350.486 51.4802 347.337 43.9497L312.279 58.6103C313.055 60.4664 313.752 63.4105 313.752 67.92H351.752ZM347.393 44.086C344.17 36.2076 338.97 29.4385 331.683 24.5538L310.525 56.1182C311.003 56.4388 311.606 56.9657 312.223 58.474L347.393 44.086ZM331.683 24.5538C324.066 19.4479 315.388 17.4315 306.789 17.306L306.235 55.302C309.327 55.3471 310.376 56.0188 310.525 56.1182L331.683 24.5538ZM306.789 17.306C298.056 17.1785 289.155 19.0599 281.341 24.2978L302.499 55.8622C302.533 55.8396 302.725 55.7112 303.24 55.5781C303.785 55.4371 304.74 55.2802 306.235 55.302L306.789 17.306ZM281.341 24.2978C274.003 29.2167 268.814 36.0513 265.577 43.9335L300.727 58.3705C301.415 56.6953 302.072 56.1486 302.499 55.8622L281.341 24.2978ZM265.522 44.0684C262.507 51.573 261.272 59.6621 261.272 67.92H299.272C299.272 63.3779 299.957 60.2883 300.782 58.2355L265.522 44.0684ZM261.272 67.92C261.272 76.1649 262.503 84.2645 265.567 91.754L300.737 77.366C299.961 75.4688 299.272 72.4751 299.272 67.92H261.272ZM265.623 91.8903C268.891 99.7046 274.089 106.425 281.341 111.286L302.499 79.7218C301.985 79.3773 301.339 78.8021 300.681 77.2297L265.623 91.8903ZM281.341 111.286C288.958 116.392 297.636 118.408 306.235 118.534L306.789 80.538C303.697 80.4929 302.648 79.8212 302.499 79.7218L281.341 111.286ZM363.96 114H344.96V133H363.96V114ZM363.96 21.84V2.84H344.96V21.84H363.96ZM406.456 21.968L405.372 40.937L405.65 40.9529L405.928 40.9607L406.456 21.968ZM410.552 22.352L407.212 41.0561L407.426 41.0944L407.641 41.1277L410.552 22.352ZM424.056 27.792L412.253 42.6815L412.297 42.7163L412.341 42.7508L424.056 27.792ZM431.864 38.288L414.186 45.252L414.198 45.2827L414.211 45.3133L431.864 38.288ZM428.6 72.144L444.143 83.0724L444.163 83.0439L444.182 83.0154L428.6 72.144ZM410.552 82.256L411.816 101.214L412.655 101.158L413.485 101.028L410.552 82.256ZM402.872 82.768V101.768H403.505L404.136 101.726L402.872 82.768ZM381.368 82.768V63.768H362.368V82.768H381.368ZM381.368 114V133H400.368V114H381.368ZM415.928 114L398.83 122.286L404.022 133H415.928V114ZM397.752 76.496L394.154 57.8398L369.867 62.5238L380.654 84.7823L397.752 76.496ZM415.672 73.04L432.751 64.7142L426.37 51.6266L412.074 54.3838L415.672 73.04ZM435.64 114V133H466.04L452.719 105.674L435.64 114ZM381.368 66.512H362.368V85.512H381.368V66.512ZM405.048 66.384L406.563 85.3235L406.563 85.3235L405.048 66.384ZM407.992 65.872L402.993 47.5415L402.882 47.5716L402.772 47.603L407.992 65.872ZM413.432 62.672L427.858 75.037L427.944 74.9369L428.028 74.8355L413.432 62.672ZM416.056 57.616L397.725 52.6168L397.686 52.7617L397.649 52.9072L416.056 57.616ZM416.056 47.056L397.623 51.6642L397.686 51.9146L397.755 52.1632L416.056 47.056ZM413.432 42L398.836 54.1635L398.92 54.2649L399.006 54.365L413.432 42ZM407.992 38.736L402.772 57.0049L402.882 57.0364L402.993 57.0665L407.992 38.736ZM405.048 38.224L403.533 57.1635L403.533 57.1635L405.048 38.224ZM381.368 38.096V19.096H362.368V38.096H381.368ZM382.96 114V21.84H344.96V114H382.96ZM363.96 40.84H402.872V2.84H363.96V40.84ZM402.872 40.84C403.248 40.84 404.036 40.8607 405.372 40.937L407.54 2.99894C405.889 2.90463 404.288 2.84 402.872 2.84V40.84ZM405.928 40.9607C406.757 40.9837 407.153 41.0455 407.212 41.0561L413.892 3.64787C411.562 3.23181 409.227 3.03765 406.984 2.97532L405.928 40.9607ZM407.641 41.1277C410.689 41.6003 411.896 42.3986 412.253 42.6815L435.859 12.9025C429.218 7.63872 421.423 4.81041 413.463 3.57631L407.641 41.1277ZM412.341 42.7508C413.192 43.4174 413.75 44.1455 414.186 45.252L449.542 31.324C446.65 23.9825 442.002 17.7133 435.771 12.8332L412.341 42.7508ZM414.211 45.3133C414.864 46.9552 415.36 49.1967 415.36 52.304H453.36C453.36 45.0859 452.192 37.9835 449.517 31.2627L414.211 45.3133ZM415.36 52.304C415.36 56.7439 414.31 59.4202 413.018 61.2726L444.182 83.0154C450.57 73.8598 453.36 63.3094 453.36 52.304H415.36ZM413.057 61.2156C412.868 61.4853 412.029 62.7946 407.619 63.4838L413.485 101.028C425.459 99.1574 436.652 93.7254 444.143 83.0724L413.057 61.2156ZM409.288 63.2981L401.608 63.8101L404.136 101.726L411.816 101.214L409.288 63.2981ZM402.872 63.768H381.368V101.768H402.872V63.768ZM362.368 82.768V114H400.368V82.768H362.368ZM381.368 95H363.96V133H381.368V95ZM433.026 105.714L414.85 68.2097L380.654 84.7823L398.83 122.286L433.026 105.714ZM401.35 95.1522L419.27 91.6962L412.074 54.3838L394.154 57.8398L401.35 95.1522ZM398.593 81.3658L418.561 122.326L452.719 105.674L432.751 64.7142L398.593 81.3658ZM435.64 95H415.928V133H435.64V95ZM381.368 85.512H402.104V47.512H381.368V85.512ZM402.104 85.512C403.591 85.512 405.086 85.4417 406.563 85.3235L403.533 47.4445C402.877 47.497 402.409 47.512 402.104 47.512V85.512ZM406.563 85.3235C408.703 85.1523 410.944 84.789 413.212 84.141L402.772 47.603C403.248 47.467 403.526 47.4451 403.533 47.4445L406.563 85.3235ZM412.991 84.2025C418.132 82.8005 423.573 80.0363 427.858 75.037L399.006 50.307C400.731 48.2944 402.545 47.6635 402.993 47.5415L412.991 84.2025ZM428.028 74.8355C431.014 71.2529 433.255 67.049 434.463 62.3248L397.649 52.9072C397.919 51.8523 398.41 51.0191 398.836 50.5085L428.028 74.8355ZM434.387 62.6152C435.27 59.3766 435.824 55.9136 435.824 52.304H397.824C397.824 52.0224 397.866 52.1008 397.725 52.6168L434.387 62.6152ZM435.824 52.304C435.824 48.6855 435.267 45.2111 434.357 41.9488L397.755 52.1632C397.869 52.5703 397.824 52.5945 397.824 52.304H435.824ZM434.489 42.4478C433.292 37.6606 431.025 33.3298 427.858 29.635L399.006 54.365C398.399 53.6569 397.881 52.6967 397.623 51.6642L434.489 42.4478ZM428.028 29.8365C423.759 24.714 418.267 21.8444 412.991 20.4055L402.993 57.0665C402.41 56.9076 400.545 56.214 398.836 54.1635L428.028 29.8365ZM413.212 20.4671C410.944 19.819 408.703 19.4557 406.563 19.2845L403.533 57.1635C403.526 57.1629 403.248 57.141 402.772 57.0049L413.212 20.4671ZM406.563 19.2845C405.086 19.1663 403.591 19.096 402.104 19.096V57.096C402.409 57.096 402.877 57.111 403.533 57.1635L406.563 19.2845ZM402.104 19.096H381.368V57.096H402.104V19.096ZM362.368 38.096V66.512H400.368V38.096H362.368ZM489.799 113.872L471.462 108.898L464.958 132.872H489.799V113.872ZM496.327 89.808L514.664 94.7825L521.168 70.808H496.327V89.808ZM474.055 89.808L455.692 84.9303L449.349 108.808H474.055V89.808ZM478.407 73.424V54.424H463.795L460.044 68.5463L478.407 73.424ZM500.679 73.424V92.424H515.34L519.058 78.2418L500.679 73.424ZM504.135 60.24L522.514 65.0578L528.758 41.24H504.135V60.24ZM481.863 60.24L463.546 55.192L456.918 79.24H481.863V60.24ZM486.343 43.984V24.984H471.871L468.026 38.936L486.343 43.984ZM508.487 43.984V62.984H523.014L526.822 48.9653L508.487 43.984ZM514.503 21.84V2.84H499.976L496.168 16.8587L514.503 21.84ZM531.399 21.84L549.734 26.8213L556.25 2.84H531.399V21.84ZM525.383 43.984L507.048 39.0027L500.532 62.984H525.383V43.984ZM539.207 43.984V62.984H553.734L557.542 48.9653L539.207 43.984ZM545.223 21.84V2.84H530.696L526.888 16.8587L545.223 21.84ZM562.119 21.84L580.454 26.8213L586.97 2.84H562.119V21.84ZM556.103 43.984L537.768 39.0027L531.252 62.984H556.103V43.984ZM578.375 43.984L596.729 48.8976L603.131 24.984H578.375V43.984ZM574.023 60.24V79.24H588.605L592.377 65.1536L574.023 60.24ZM551.751 60.24V41.24H537.227L533.416 55.2558L551.751 60.24ZM548.167 73.424L529.832 68.4398L523.312 92.424H548.167V73.424ZM570.439 73.424L588.802 78.3017L595.145 54.424H570.439V73.424ZM566.087 89.808V108.808H580.699L584.45 94.6857L566.087 89.808ZM543.815 89.808V70.808H529.208L525.453 84.9246L543.815 89.808ZM537.415 113.872V132.872H552.022L555.777 118.755L537.415 113.872ZM520.519 113.872L502.157 108.989L495.805 132.872H520.519V113.872ZM526.919 89.808L545.281 94.6914L551.633 70.808H526.919V89.808ZM513.095 89.808V70.808H498.488L494.733 84.9246L513.095 89.808ZM506.695 113.872V132.872H521.302L525.057 118.755L506.695 113.872ZM517.575 73.424L499.196 68.6062L492.952 92.424H517.575V73.424ZM531.271 73.424V92.424H545.795L549.606 78.4082L531.271 73.424ZM534.855 60.24L553.19 65.2242L559.71 41.24H534.855V60.24ZM521.031 60.24V41.24H506.37L502.652 55.4222L521.031 60.24ZM508.136 118.846L514.664 94.7825L477.99 84.8335L471.462 108.898L508.136 118.846ZM496.327 70.808H474.055V108.808H496.327V70.808ZM492.418 94.6857L496.77 78.3017L460.044 68.5463L455.692 84.9303L492.418 94.6857ZM478.407 92.424H500.679V54.424H478.407V92.424ZM519.058 78.2418L522.514 65.0578L485.756 55.4222L482.3 68.6062L519.058 78.2418ZM504.135 41.24H481.863V79.24H504.135V41.24ZM500.18 65.288L504.66 49.032L468.026 38.936L463.546 55.192L500.18 65.288ZM486.343 62.984H508.487V24.984H486.343V62.984ZM526.822 48.9653L532.838 26.8213L496.168 16.8587L490.152 39.0027L526.822 48.9653ZM514.503 40.84H531.399V2.84H514.503V40.84ZM513.064 16.8587L507.048 39.0027L543.718 48.9653L549.734 26.8213L513.064 16.8587ZM525.383 62.984H539.207V24.984H525.383V62.984ZM557.542 48.9653L563.558 26.8213L526.888 16.8587L520.872 39.0027L557.542 48.9653ZM545.223 40.84H562.119V2.84H545.223V40.84ZM543.784 16.8587L537.768 39.0027L574.438 48.9653L580.454 26.8213L543.784 16.8587ZM556.103 62.984H578.375V24.984H556.103V62.984ZM560.021 39.0704L555.669 55.3264L592.377 65.1536L596.729 48.8976L560.021 39.0704ZM574.023 41.24H551.751V79.24H574.023V41.24ZM533.416 55.2558L529.832 68.4398L566.502 78.4082L570.086 65.2242L533.416 55.2558ZM548.167 92.424H570.439V54.424H548.167V92.424ZM552.076 68.5463L547.724 84.9303L584.45 94.6857L588.802 78.3017L552.076 68.5463ZM566.087 70.808H543.815V108.808H566.087V70.808ZM525.453 84.9246L519.053 108.989L555.777 118.755L562.177 94.6914L525.453 84.9246ZM537.415 94.872H520.519V132.872H537.415V94.872ZM538.881 118.755L545.281 94.6914L508.557 84.9246L502.157 108.989L538.881 118.755ZM526.919 70.808H513.095V108.808H526.919V70.808ZM494.733 84.9246L488.333 108.989L525.057 118.755L531.457 94.6914L494.733 84.9246ZM506.695 94.872H489.799V132.872H506.695V94.872ZM517.575 92.424H531.271V54.424H517.575V92.424ZM549.606 78.4082L553.19 65.2242L516.52 55.2558L512.936 68.4398L549.606 78.4082ZM534.855 41.24H521.031V79.24H534.855V41.24ZM502.652 55.4222L499.196 68.6062L535.954 78.2418L539.41 65.0578L502.652 55.4222ZM632.464 114H613.464V133H632.464V114ZM632.464 99.664H651.464V80.664H632.464V99.664ZM592.4 99.664H573.4V118.664H592.4V99.664ZM592.4 83.408L575.217 75.2989L573.4 79.1498V83.408H592.4ZM621.456 21.84V2.84H609.413L604.273 13.7309L621.456 21.84ZM641.424 21.84L658.607 29.9491L671.4 2.84H641.424V21.84ZM612.368 83.408L595.185 75.2989L582.392 102.408H612.368V83.408ZM632.464 83.408V102.408H651.464V83.408H632.464ZM632.464 60.368V41.368H613.464V60.368H632.464ZM650.128 60.368H669.128V41.368H650.128V60.368ZM650.128 83.408H631.128V102.408H650.128V83.408ZM658.32 83.408H677.32V64.408H658.32V83.408ZM658.32 99.664V118.664H677.32V99.664H658.32ZM650.128 99.664V80.664H631.128V99.664H650.128ZM650.128 114V133H669.128V114H650.128ZM651.464 114V99.664H613.464V114H651.464ZM632.464 80.664H592.4V118.664H632.464V80.664ZM611.4 99.664V83.408H573.4V99.664H611.4ZM609.583 91.5171L638.639 29.9491L604.273 13.7309L575.217 75.2989L609.583 91.5171ZM621.456 40.84H641.424V2.84H621.456V40.84ZM624.241 13.7309L595.185 75.2989L629.551 91.5171L658.607 29.9491L624.241 13.7309ZM612.368 102.408H632.464V64.408H612.368V102.408ZM651.464 83.408V60.368H613.464V83.408H651.464ZM632.464 79.368H650.128V41.368H632.464V79.368ZM631.128 60.368V83.408H669.128V60.368H631.128ZM650.128 102.408H658.32V64.408H650.128V102.408ZM639.32 83.408V99.664H677.32V83.408H639.32ZM658.32 80.664H650.128V118.664H658.32V80.664ZM631.128 99.664V114H669.128V99.664H631.128ZM650.128 95H632.464V133H650.128V95ZM689.966 111.632L699.228 95.0426L689.966 111.632ZM677.998 99.664L694.587 90.4016L677.998 99.664ZM677.998 36.176L694.587 45.4384V45.4384L677.998 36.176ZM689.966 24.208L680.704 7.6186V7.61861L689.966 24.208ZM725.806 24.208L735.068 7.61861V7.6186L725.806 24.208ZM737.774 99.664L721.185 90.4016L737.774 99.664ZM725.806 111.632L735.068 128.221L725.806 111.632ZM716.206 97.232L706.597 80.8407V80.8407L716.206 97.232ZM722.094 91.344L705.703 81.7353V81.7353L722.094 91.344ZM722.094 44.368L705.703 53.9767V53.9767L722.094 44.368ZM716.206 38.48L706.597 54.8712L706.597 54.8713L716.206 38.48ZM699.566 38.48L689.957 22.0887L699.566 38.48ZM693.678 91.344L677.287 100.953V100.953L693.678 91.344ZM699.566 97.232L709.175 80.8407L699.566 97.232ZM707.886 96.92C703.766 96.92 701.083 96.0782 699.228 95.0426L680.704 128.221C689.089 132.903 698.353 134.92 707.886 134.92V96.92ZM699.228 95.0426C697.182 93.9003 695.73 92.4476 694.587 90.4016L661.409 108.926C665.984 117.12 672.51 123.646 680.704 128.221L699.228 95.0426ZM694.587 90.4016C693.552 88.5468 692.71 85.8644 692.71 81.744H654.71C654.71 91.277 656.727 100.541 661.409 108.926L694.587 90.4016ZM692.71 81.744V54.096H654.71V81.744H692.71ZM692.71 54.096C692.71 49.9756 693.552 47.2932 694.587 45.4384L661.409 26.9136C656.727 35.2988 654.71 44.563 654.71 54.096H692.71ZM694.587 45.4384C695.73 43.3924 697.182 41.9397 699.228 40.7974L680.704 7.61861C672.51 12.1936 665.984 18.7196 661.409 26.9136L694.587 45.4384ZM699.228 40.7974C701.083 39.7618 703.766 38.92 707.886 38.92V0.919998C698.353 0.919998 689.089 2.93686 680.704 7.6186L699.228 40.7974ZM707.886 38.92C712.006 38.92 714.689 39.7618 716.544 40.7974L735.068 7.6186C726.683 2.93686 717.419 0.919998 707.886 0.919998V38.92ZM716.544 40.7974C718.59 41.9397 720.042 43.3924 721.185 45.4384L754.363 26.9136C749.788 18.7196 743.262 12.1936 735.068 7.61861L716.544 40.7974ZM721.185 45.4384C722.22 47.2932 723.062 49.9756 723.062 54.096H761.062C761.062 44.563 759.045 35.2988 754.363 26.9136L721.185 45.4384ZM723.062 54.096V81.744H761.062V54.096H723.062ZM723.062 81.744C723.062 85.8644 722.22 88.5468 721.185 90.4016L754.363 108.926C759.045 100.541 761.062 91.277 761.062 81.744H723.062ZM721.185 90.4016C720.042 92.4476 718.59 93.9003 716.544 95.0426L735.068 128.221C743.262 123.646 749.788 117.12 754.363 108.926L721.185 90.4016ZM716.544 95.0426C714.689 96.0782 712.006 96.92 707.886 96.92V134.92C717.419 134.92 726.683 132.903 735.068 128.221L716.544 95.0426ZM707.886 118.408C714.088 118.408 720.219 116.904 725.815 113.623L706.597 80.8407C706.861 80.6864 707.164 80.5603 707.462 80.4823C707.753 80.4062 707.915 80.408 707.886 80.408V118.408ZM725.815 113.623C731.093 110.529 735.391 106.231 738.485 100.953L705.703 81.7353C705.768 81.6234 705.898 81.4378 706.099 81.237C706.3 81.0361 706.485 80.9063 706.597 80.8407L725.815 113.623ZM738.485 100.953C741.766 95.357 743.27 89.2256 743.27 83.024H705.27C705.27 83.0532 705.268 82.8913 705.344 82.6005C705.422 82.302 705.548 81.9986 705.703 81.7353L738.485 100.953ZM743.27 83.024V52.688H705.27V83.024H743.27ZM743.27 52.688C743.27 46.4864 741.766 40.355 738.485 34.7593L705.703 53.9767C705.548 53.7134 705.422 53.41 705.344 53.1115C705.268 52.8206 705.27 52.6588 705.27 52.688H743.27ZM738.485 34.7593C735.391 29.4809 731.093 25.183 725.815 22.0887L706.597 54.8713C706.485 54.8057 706.3 54.6759 706.099 54.475C705.898 54.2742 705.768 54.0886 705.703 53.9767L738.485 34.7593ZM725.815 22.0887C720.219 18.8085 714.088 17.304 707.886 17.304V55.304C707.915 55.304 707.753 55.3058 707.462 55.2297C707.164 55.1516 706.861 55.0256 706.597 54.8712L725.815 22.0887ZM707.886 17.304C701.684 17.304 695.553 18.8085 689.957 22.0887L709.175 54.8713C708.911 55.0256 708.608 55.1516 708.31 55.2297C708.019 55.3058 707.857 55.304 707.886 55.304V17.304ZM689.957 22.0887C684.679 25.183 680.381 29.4809 677.287 34.7593L710.069 53.9767C710.004 54.0886 709.874 54.2742 709.673 54.475C709.472 54.6759 709.287 54.8056 709.175 54.8713L689.957 22.0887ZM677.287 34.7593C674.006 40.355 672.502 46.4864 672.502 52.688H710.502C710.502 52.6588 710.504 52.8206 710.428 53.1115C710.35 53.41 710.224 53.7134 710.069 53.9767L677.287 34.7593ZM672.502 52.688V83.024H710.502V52.688H672.502ZM672.502 83.024C672.502 89.2255 674.006 95.357 677.287 100.953L710.069 81.7353C710.224 81.9986 710.35 82.302 710.428 82.6005C710.504 82.8913 710.502 83.0532 710.502 83.024H672.502ZM677.287 100.953C680.381 106.231 684.679 110.529 689.957 113.623L709.175 80.8407C709.287 80.9063 709.472 81.0361 709.673 81.237C709.874 81.4378 710.004 81.6234 710.069 81.7353L677.287 100.953ZM689.957 113.623C695.553 116.904 701.684 118.408 707.886 118.408V80.408C707.857 80.408 708.019 80.4062 708.31 80.4823C708.608 80.5603 708.911 80.6864 709.175 80.8407L689.957 113.623ZM797.464 114H778.464V133H797.464V114ZM797.464 99.664H816.464V80.664H797.464V99.664ZM757.4 99.664H738.4V118.664H757.4V99.664ZM757.4 83.408L740.217 75.2989L738.4 79.1498V83.408H757.4ZM786.456 21.84V2.84H774.413L769.273 13.7309L786.456 21.84ZM806.424 21.84L823.607 29.9491L836.4 2.84H806.424V21.84ZM777.368 83.408L760.185 75.2989L747.392 102.408H777.368V83.408ZM797.464 83.408V102.408H816.464V83.408H797.464ZM797.464 60.368V41.368H778.464V60.368H797.464ZM815.128 60.368H834.128V41.368H815.128V60.368ZM815.128 83.408H796.128V102.408H815.128V83.408ZM823.32 83.408H842.32V64.408H823.32V83.408ZM823.32 99.664V118.664H842.32V99.664H823.32ZM815.128 99.664V80.664H796.128V99.664H815.128ZM815.128 114V133H834.128V114H815.128ZM816.464 114V99.664H778.464V114H816.464ZM797.464 80.664H757.4V118.664H797.464V80.664ZM776.4 99.664V83.408H738.4V99.664H776.4ZM774.583 91.5171L803.639 29.9491L769.273 13.7309L740.217 75.2989L774.583 91.5171ZM786.456 40.84H806.424V2.84H786.456V40.84ZM789.241 13.7309L760.185 75.2989L794.551 91.5171L823.607 29.9491L789.241 13.7309ZM777.368 102.408H797.464V64.408H777.368V102.408ZM816.464 83.408V60.368H778.464V83.408H816.464ZM797.464 79.368H815.128V41.368H797.464V79.368ZM796.128 60.368V83.408H834.128V60.368H796.128ZM815.128 102.408H823.32V64.408H815.128V102.408ZM804.32 83.408V99.664H842.32V83.408H804.32ZM823.32 80.664H815.128V118.664H823.32V80.664ZM796.128 99.664V114H834.128V99.664H796.128ZM815.128 95H797.464V133H815.128V95Z" fill="url(#paint0_linear_869_19862)" mask="url(#path-1-outside-1_869_19862)"/>
<defs>
<linearGradient id="paint0_linear_869_19862" x1="11" y1="64.5" x2="830" y2="64.5" gradientUnits="userSpaceOnUse">
<stop stop-color="#DCD9D7"/>
<stop offset="1" stop-color="#E1DDDB"/>
</linearGradient>
</defs>
</svg>
