<svg width="20" height="21" viewBox="0 0 20 21" fill="none" xmlns="http://www.w3.org/2000/svg">
<path d="M16.5625 3.72778H3.4375C3.09232 3.72778 2.8125 4.00761 2.8125 4.35278V17.4778C2.8125 17.823 3.09232 18.1028 3.4375 18.1028H16.5625C16.9077 18.1028 17.1875 17.823 17.1875 17.4778V4.35278C17.1875 4.00761 16.9077 3.72778 16.5625 3.72778Z" stroke="white" stroke-width="1.5" stroke-linecap="round" stroke-linejoin="round"/>
<path d="M9.375 9.66528V14.6653" stroke="white" stroke-width="1.5" stroke-linecap="round" stroke-linejoin="round"/>
<path d="M6.875 9.66528V14.6653" stroke="white" stroke-width="1.5" stroke-linecap="round" stroke-linejoin="round"/>
<path d="M9.375 11.8528C9.375 11.2726 9.60547 10.7162 10.0157 10.306C10.4259 9.89575 10.9823 9.66528 11.5625 9.66528C12.1427 9.66528 12.6991 9.89575 13.1093 10.306C13.5195 10.7162 13.75 11.2726 13.75 11.8528V14.6653" stroke="white" stroke-width="1.5" stroke-linecap="round" stroke-linejoin="round"/>
<path d="M6.875 8.10278C7.39277 8.10278 7.8125 7.68305 7.8125 7.16528C7.8125 6.64752 7.39277 6.22778 6.875 6.22778C6.35723 6.22778 5.9375 6.64752 5.9375 7.16528C5.9375 7.68305 6.35723 8.10278 6.875 8.10278Z" fill="white"/>
</svg>
