<svg viewBox="0 0 20 20" fill="none" xmlns="http://www.w3.org/2000/svg">
<path d="M10.0001 6.87504C10.0001 5.15629 11.4454 3.7266 13.1641 3.75004C13.766 3.75699 14.3531 3.93763 14.8548 4.27026C15.3565 4.60288 15.7515 5.07332 15.9922 5.62504H18.7501L16.2266 8.14848C16.0638 10.6833 14.9417 13.061 13.0885 14.7981C11.2353 16.5352 8.7901 17.5013 6.25006 17.5C3.75006 17.5 3.12506 16.5625 3.12506 16.5625C3.12506 16.5625 5.62506 15.625 6.87506 13.75C6.87506 13.75 1.87506 11.25 3.12506 4.37504C3.12506 4.37504 6.25006 7.50004 10.0001 8.12504V6.87504Z" stroke="white" stroke-width="1.5" stroke-linecap="round" stroke-linejoin="round"/>
</svg>
